# xmcd CD database file
#
# Track frame offsets:
#	150
#	22193
#	32591
#	46185
#	62228
#	91455
#	108698
#	121722
#	136699
#	152215
#	167094
#	186018
#	199004
#
# Disc length: 2955 seconds
#
# Revision: 0
# Processed by: cddbd v1.5PL3 Copyright (c) Steve Scherf et al.
# Submitted via: CDex 1.51
#
DISCID=ab0b890d
DTITLE=Various Artist - Hoey Brewed #1
DYEAR=2004
DGENRE=Rock
TTITLE0=Big Heavy Stuff - Mutiny
TTITLE1=The Camels - The Good Life
TTITLE2=The City Lights - New World Record
TTITLE3=Dappled Citites Fly - Peach
TTITLE4=Decoder Ring - Alsace Lorraine
TTITLE5=Gersey - Look To The Sun
TTITLE6=Dave McCormack - Inner West
TTITLE7=Peabody - Days And Nights
TTITLE8=The Ross Orbit Stack - Trouble
TTITLE9=Terrapin - Emma
TTITLE10=Treetops - God Of Love
TTITLE11=Youth Group - Time Freezes
TTITLE12=2 Up - Bringin' It
EXTD=YEAR: 2004
EXTT0=
EXTT1=
EXTT2=
EXTT3=
EXTT4=
EXTT5=
EXTT6=
EXTT7=
EXTT8=
EXTT9=
EXTT10=
EXTT11=
EXTT12=
PLAYORDER=
